<svg width="24" height="24" viewBox="0 0 24 24" fill="none" xmlns="http://www.w3.org/2000/svg">
<path d="M16.3281 16.844L19.9978 20.5137" stroke="#1D1D1F" stroke-width="1.5" stroke-linecap="round" stroke-linejoin="round"/>
<path d="M11.3394 4C12.791 4 14.21 4.43044 15.417 5.23691C16.6239 6.04337 17.5646 7.18963 18.1201 8.53073C18.6756 9.87183 18.821 11.3475 18.5378 12.7712C18.2546 14.1949 17.5556 15.5026 16.5291 16.5291C15.5026 17.5556 14.1949 18.2546 12.7712 18.5378C11.3475 18.821 9.87183 18.6756 8.53073 18.1201C7.18963 17.5646 6.04337 16.6239 5.23691 15.417C4.43044 14.21 4 12.791 4 11.3394C4 9.39286 4.77325 7.52606 6.14965 6.14965C7.52606 4.77325 9.39286 4 11.3394 4Z" stroke="#1D1D1F" stroke-width="1.5" stroke-linecap="round"/>
</svg>
