<svg width="24" height="24" viewBox="0 0 24 24" fill="none" xmlns="http://www.w3.org/2000/svg">
<g id="Group 37502">
<g id="Group 2609002">
<path id="&#60;Path&#62;" d="M17.3636 12.3609C17.3733 11.6141 17.5735 10.8819 17.9456 10.2324C18.3177 9.58286 18.8496 9.03715 19.4918 8.646C19.0839 8.06877 18.5457 7.59374 17.92 7.25862C17.2943 6.92351 16.5983 6.73755 15.8874 6.71551C14.3708 6.5578 12.9006 7.61454 12.1278 7.61454C11.34 7.61454 10.1502 6.73117 8.86893 6.75728C8.04017 6.78381 7.23247 7.02256 6.52455 7.45029C5.81662 7.87801 5.2326 8.48011 4.82939 9.19793C3.08281 12.1938 4.3856 16.5967 6.05871 19.0184C6.8958 20.2042 7.87411 21.5287 9.15423 21.4818C10.4069 21.4303 10.8748 20.6904 12.3868 20.6904C13.8849 20.6904 14.3238 21.4818 15.6299 21.4519C16.9741 21.4303 17.821 20.2608 18.6287 19.0638C19.2302 18.2189 19.693 17.285 20 16.2969C19.2191 15.9697 18.5526 15.4219 18.0838 14.722C17.615 14.0221 17.3645 13.2009 17.3636 12.3609Z" fill="black"/>
<path id="&#60;Path&#62;_2" d="M14.8966 5.1231C15.6295 4.25147 15.9906 3.13112 15.9031 2C14.7834 2.11651 13.7491 2.64668 13.0063 3.48487C12.6432 3.89435 12.365 4.37072 12.1878 4.88676C12.0105 5.40281 11.9377 5.94839 11.9734 6.49234C12.5335 6.49805 13.0875 6.37779 13.5939 6.14061C14.1002 5.90344 14.5456 5.55553 14.8966 5.1231Z" fill="black"/>
</g>
</g>
</svg>
