<svg width="140" height="22" viewBox="0 0 140 22" fill="none" xmlns="http://www.w3.org/2000/svg">
<g id="Group">
<path id="Vector" d="M78.5628 14.6049H80.2977V12.2578H78.3061V10.5298H80.9442V8.18549H78.3061V6.33735H80.0712V3.90794H68.7065C68.9193 3.6348 69.1032 3.3651 69.2768 3.09745L66.6003 1.92529C65.901 2.92176 65.0068 3.95255 63.9513 4.93941C63.4278 5.4299 62.8809 5.89482 62.3125 6.33255L64.6719 7.8499C64.9396 7.65431 65.2051 7.44225 65.4769 7.22333V8.18549H62.8567V10.5298H65.4769V12.2578H63.6494V14.6049H65.4316C64.7831 15.7956 63.7043 17.1867 62.9116 17.8606L65.2038 19.4967C66.3265 18.492 67.3752 17.0988 68.1692 15.4614L66.3979 14.6049H77.8422L76.0057 15.6158C76.9089 16.7392 77.9506 18.1591 78.5587 19.3388L81.0849 18.142C80.5413 17.0803 79.5147 15.5835 78.5628 14.6049ZM75.5274 12.2578H74.8247V10.5298H75.5274V12.2578ZM72.2676 10.5298V12.2578H71.5319V10.5298H72.2676ZM71.5319 8.18549V6.33735H72.2676V8.18549H71.5319ZM75.5274 8.18549H74.8247V6.33735H75.5274V8.18549ZM68.2501 6.33735H68.9687V8.18549H68.2501V6.33735ZM68.2501 10.5298H68.9687V12.2578H68.2501V10.5298Z" fill="#1D1D1F"/>
<path id="Vector_2" d="M68.5898 15.3974C68.9879 16.2305 69.6083 18.5178 69.6124 19.2062L72.3438 18.6407C72.0315 16.9044 71.7446 15.9587 71.081 14.7962L68.5898 15.3974ZM72.2497 15.5497C72.7439 16.3369 73.6257 18.3991 73.7232 19.224L76.5067 18.5666C76.1279 16.9943 75.6214 15.9587 74.929 14.849L72.2497 15.5504V15.5497ZM100.834 4.20833H92.3665V4.61666L90.5849 3.07117C89.1616 3.87343 86.9545 4.53157 84.4345 4.82941C84.4016 4.82941 84.3783 4.83421 84.3453 4.83765V18.594H87.3334V17.6909H91.9081V14.9396H87.3334V11.7429H91.9081V9.14059H87.3334V6.88961C89.3167 6.52245 91.055 5.98304 92.3665 5.33382V19.4958H95.3895V6.84088H97.8087V14.9396H95.8377L96.8493 17.8508H98.3357C99.7151 17.8508 100.834 16.8577 100.834 15.6362L100.834 4.20833ZM116.401 15.3912C116.638 15.1839 116.888 14.9684 117.132 14.7474C117.946 13.9774 118.651 13.1972 119.205 12.4704L118.381 11.721V4.31059H113.363V2.12549H110.112V4.31127H104.986V16.3636H104.975C104.349 16.4926 103.733 16.6127 103.124 16.7184L103.746 19.5925C104.07 19.5267 104.391 19.4532 104.713 19.3819C107.478 18.7635 109.994 18.0203 111.977 17.2681L111.968 15.477C113.808 17.3038 116.398 18.8857 119.286 19.7854L120.873 17.3011C119.143 16.7637 117.634 16.1248 116.401 15.3912ZM115.143 9.83167H108.121V9.20715H115.143V9.83167ZM115.617 12.2721C115.391 12.5445 115.147 12.8259 114.88 13.1052C114.674 13.3262 114.46 13.543 114.247 13.7469C113.806 13.3083 113.426 12.8122 113.117 12.2721H115.617ZM115.143 6.64529V7.28216H108.121V6.64529H115.143ZM108.121 15.6403V12.2721H109.657C110.031 13.1052 110.581 13.937 111.278 14.7378C110.307 15.0556 109.254 15.3555 108.121 15.6403Z" fill="#1D1D1F"/>
<g id="Group_2">
<path id="Vector_3" d="M136.641 3.39185H126.115V10.4159H136.639L136.641 3.39185ZM129.018 5.70734H133.736V8.00567H129.018V5.70734ZM122.777 11.249V19.5049H125.678V18.9147H127.981V19.5008H130.884V11.249H122.777ZM125.678 16.58V13.686H127.98V16.58H125.678ZM140 11.249H131.772V19.5049H134.737V18.9147H137.036V19.5008H140V11.249ZM134.737 16.58V13.686H137.036V16.58H134.737Z" fill="#1D1D1F"/>
</g>
<g id="Group_3">
<path id="Vector_4" d="M53.3256 20.8137H48.2767V0.712673H53.3304L53.3256 20.8137ZM13.4167 6.40463L10.524 20.8157L6.98971 20.8137L4.08333 6.40463V20.8137L0 20.7704V0.712673L6.22177 0.705811L8.74794 13.277L11.2789 0.705811H17.7189V20.8157H13.416L13.4167 6.40463ZM33.3372 15.7894C33.3372 19.2592 30.323 21.2748 26.624 21.2748C22.9202 21.2748 19.9054 19.2592 19.9054 15.7874L19.8889 0.705811H24.9413L24.9543 15.7009C24.9543 16.5615 25.7058 17.2601 26.6233 17.2601C27.5395 17.2601 28.2951 16.5622 28.2951 15.7016L28.302 0.705811H33.3571L33.3372 15.7894ZM46.0902 16.4126C46.0902 19.448 43.459 21.294 40.2294 21.294C36.9971 21.294 34.3734 19.448 34.3734 16.4126C34.359 15.6563 34.3604 14.5418 34.3604 13.4774L38.8569 13.4733V16.416C38.8569 16.9822 39.3441 17.442 39.9515 17.442C40.554 17.442 41.0502 16.9822 41.0502 16.416L41.0529 0.705811H46.1053L46.0902 16.4126Z" fill="#1D1D1F"/>
</g>
</g>
</svg>
