<svg width="22" height="16" viewBox="0 0 22 16" fill="none" xmlns="http://www.w3.org/2000/svg">
<path id="Vector" d="M22.002 5.71731C22.0514 4.28596 21.7384 2.86533 21.092 1.58731C20.6534 1.06291 20.0447 0.709018 19.372 0.587308C16.5895 0.334834 13.7955 0.231352 11.002 0.277308C8.21863 0.229267 5.43469 0.329408 2.66198 0.577308C2.1138 0.677025 1.6065 0.93415 1.20198 1.31731C0.30198 2.14731 0.20198 3.56731 0.10198 4.76731C-0.0431079 6.92487 -0.0431079 9.08974 0.10198 11.2473C0.13091 11.9227 0.231474 12.5931 0.40198 13.2473C0.522555 13.7524 0.766503 14.2197 1.11198 14.6073C1.51925 15.0108 2.03836 15.2825 2.60198 15.3873C4.7579 15.6534 6.9302 15.7637 9.10198 15.7173C12.602 15.7673 15.672 15.7173 19.302 15.4373C19.8794 15.339 20.4132 15.0669 20.832 14.6573C21.1119 14.3772 21.3211 14.0344 21.442 13.6573C21.7996 12.5599 21.9753 11.4114 21.962 10.2573C22.002 9.69731 22.002 6.31731 22.002 5.71731ZM8.74198 10.8573V4.66731L14.662 7.77731C13.002 8.69731 10.812 9.73731 8.74198 10.8573Z" fill="black"/>
</svg>
