<svg width="24" height="24" viewBox="0 0 24 24" fill="none" xmlns="http://www.w3.org/2000/svg">
<path d="M11.6413 3.08253C11.788 2.78523 12.212 2.78523 12.3587 3.08253L14.4621 7.3445C14.6952 7.81673 15.1457 8.14404 15.6668 8.21977L20.3702 8.90321C20.6983 8.95088 20.8293 9.35407 20.5919 9.58549L17.1885 12.903C16.8114 13.2706 16.6393 13.8002 16.7283 14.3192L17.5317 19.0036C17.5878 19.3303 17.2448 19.5795 16.9514 19.4252L12.7445 17.2136C12.2784 16.9685 11.7216 16.9685 11.2555 17.2136L7.04863 19.4252C6.75518 19.5795 6.41221 19.3303 6.46825 19.0036L7.27168 14.3192C7.3607 13.8002 7.18862 13.2706 6.81153 12.903L3.40814 9.58549C3.17073 9.35407 3.30173 8.95088 3.62982 8.90321L8.33319 8.21977C8.85433 8.14404 9.30483 7.81673 9.53789 7.3445L11.6413 3.08253Z" stroke="#D8D8D9" stroke-width="1.2"/>
</svg>
